<svg width="208" height="208" viewBox="0 0 208 208" fill="none" xmlns="http://www.w3.org/2000/svg">
<path d="M0 104C0 124.569 6.09949 144.677 17.5272 161.779C28.9548 178.882 45.1974 192.212 64.2009 200.083C83.2044 207.955 104.115 210.014 124.289 206.002C144.463 201.989 162.994 192.084 177.539 177.539C192.084 162.994 201.989 144.463 206.002 124.289C210.015 104.115 207.955 83.2044 200.083 64.2009C192.212 45.1974 178.882 28.9548 161.779 17.5271C144.677 6.09945 124.569 -4.57764e-05 104 -4.57764e-05C76.4264 0.0290724 49.9905 10.9955 30.4931 30.493C10.9956 49.9905 0.0291182 76.4264 0 104ZM192 104C192 121.405 186.839 138.419 177.169 152.89C167.5 167.362 153.756 178.641 137.676 185.301C121.596 191.962 103.902 193.705 86.8321 190.309C69.7617 186.914 54.0816 178.532 41.7746 166.225C29.4676 153.918 21.0864 138.238 17.6909 121.168C14.2954 104.098 16.0381 86.4037 22.6986 70.3238C29.3591 54.2439 40.6383 40.5002 55.1098 30.8306C69.5813 21.1611 86.5952 16 104 16C127.331 16.0264 149.699 25.3063 166.196 41.8038C182.694 58.3013 191.974 80.669 192 104ZM106.34 66.34C107.083 65.5961 107.965 65.0061 108.936 64.6035C109.908 64.2009 110.949 63.9937 112 63.9937C113.051 63.9937 114.092 64.2009 115.064 64.6035C116.035 65.0061 116.917 65.5961 117.66 66.34L149.66 98.34C150.404 99.0829 150.994 99.9652 151.396 100.936C151.799 101.908 152.006 102.949 152.006 104C152.006 105.051 151.799 106.092 151.396 107.063C150.994 108.035 150.404 108.917 149.66 109.66L117.66 141.66C116.159 143.161 114.123 144.004 112 144.004C109.877 144.004 107.841 143.161 106.34 141.66C104.839 140.159 103.996 138.123 103.996 136C103.996 133.877 104.839 131.841 106.34 130.34L124.69 112H64C61.8783 112 59.8434 111.157 58.3431 109.657C56.8429 108.157 56 106.122 56 104C56 101.878 56.8429 99.8434 58.3431 98.3431C59.8434 96.8428 61.8783 96 64 96H124.69L106.34 77.66C105.596 76.917 105.006 76.0347 104.604 75.0635C104.201 74.0923 103.994 73.0513 103.994 72C103.994 70.9486 104.201 69.9076 104.604 68.9364C105.006 67.9652 105.596 67.0829 106.34 66.34Z" fill="#DD8EA4"/>
</svg>
